<?xml version="1.0" encoding="UTF-8"?>
<svg width="62px" height="61px" viewBox="0 0 62 61" version="1.1" xmlns="http://www.w3.org/2000/svg" xmlns:xlink="http://www.w3.org/1999/xlink">
    <!-- Generator: Sketch 63.1 (92452) - https://sketch.com -->
    <title>Group 7</title>
    <desc>Created with Sketch.</desc>
    <g id="100819_Current" stroke="none" stroke-width="1" fill="none" fill-rule="evenodd">
        <g id="home-screen-v2" transform="translate(-481.000000, -1169.000000)" fill="#1577D9" fill-rule="nonzero">
            <g id="Group-16" transform="translate(69.000000, 1169.000000)">
                <g id="Group-7" transform="translate(412.000000, 0.000000)">
                    <path d="M60.7474747,58.4925373 L58.4929293,58.4925373 L58.4929293,20.2537313 C58.4929293,19.5641791 57.9292929,19 57.240404,19 L49.8505051,19 C49.1616162,19 48.5979798,19.5641791 48.5979798,20.2537313 L48.5979798,58.4925373 L43.4626263,58.4925373 L43.4626263,36.5522388 C43.4626263,35.8626866 42.8989899,35.2985075 42.210101,35.2985075 L34.820202,35.2985075 C34.1313131,35.2985075 33.5676768,35.8626866 33.5676768,36.5522388 L33.5676768,58.4925373 L28.4323232,58.4925373 L28.4323232,27.7761194 C28.4323232,27.0865672 27.8686869,26.5223881 27.179798,26.5223881 L19.789899,26.5223881 C19.1010101,26.5223881 18.5373737,27.0865672 18.5373737,27.7761194 L18.5373737,58.4925373 L13.4020202,58.4925373 L13.4020202,41.5671642 C13.4020202,40.8776119 12.8383838,40.3134328 12.1494949,40.3134328 L4.75959596,40.3134328 C4.07070707,40.3134328 3.50707071,40.8776119 3.50707071,41.5671642 L3.50707071,58.4925373 L1.25252525,58.4925373 C0.563636364,58.4925373 0,59.0567164 0,59.7462687 C0,60.4358209 0.563636364,61 1.25252525,61 L60.7474747,61 C61.4363636,61 62,60.4358209 62,59.7462687 C62,59.0567164 61.4363636,58.4925373 60.7474747,58.4925373 Z M51.1030303,21.5074627 L55.9878788,21.5074627 L55.9878788,58.4925373 L51.1030303,58.4925373 L51.1030303,21.5074627 Z M36.0727273,37.8059701 L40.9575758,37.8059701 L40.9575758,58.4925373 L36.0727273,58.4925373 L36.0727273,37.8059701 L36.0727273,37.8059701 Z M21.0424242,29.0298507 L25.9272727,29.0298507 L25.9272727,58.4925373 L21.0424242,58.4925373 L21.0424242,29.0298507 Z M6.01212121,42.8208955 L10.8969697,42.8208955 L10.8969697,58.4925373 L6.01212121,58.4925373 L6.01212121,42.8208955 L6.01212121,42.8208955 Z" id="Shape"></path>
                    <path d="M54,0 C51.25,0 49,2.232 49,4.96 C49,5.952 49.3125,6.944 49.875,7.688 L40.9375,16.492 C40.3125,16.244 39.6875,16.12 39,16.12 C37.8125,16.12 36.6875,16.554 35.875,17.236 L29,12.958 C29,12.772 29.0625,12.586 29.0625,12.4 C29.0625,9.672 26.8125,7.44 24.0625,7.44 C21.3125,7.44 19.0625,9.672 19.0625,12.4 C19.0625,13.082 19.1875,13.764 19.5,14.384 L10.9375,21.452 C10.375,21.204 9.6875,21.08 9,21.08 C6.25,21.08 4,23.312 4,26.04 C4,28.768 6.25,31 9,31 C11.75,31 14,28.768 14,26.04 C14,24.924 13.625,23.87 12.9375,23.002 L20.9375,16.306 C21.75,16.926 22.8125,17.36 24,17.36 C25.6875,17.36 27.125,16.554 28.0625,15.314 L34.375,19.22 C34.125,19.778 34,20.398 34,21.08 C34,23.808 36.25,26.04 39,26.04 C41.75,26.04 44,23.808 44,21.08 C44,19.964 43.625,18.91 42.9375,18.042 L51.6875,9.362 C52.375,9.734 53.125,9.92 54,9.92 C56.75,9.92 59,7.688 59,4.96 C59,2.232 56.75,0 54,0 Z M9,28.52 C7.625,28.52 6.5,27.404 6.5,26.04 C6.5,24.676 7.625,23.56 9,23.56 C10.375,23.56 11.5,24.676 11.5,26.04 C11.5,27.404 10.375,28.52 9,28.52 Z M24,14.88 C22.625,14.88 21.5,13.764 21.5,12.4 C21.5,11.036 22.625,9.92 24,9.92 C25.375,9.92 26.5,11.036 26.5,12.4 C26.5,13.764 25.375,14.88 24,14.88 Z M39,23.56 C37.625,23.56 36.5,22.444 36.5,21.08 C36.5,19.716 37.625,18.6 39,18.6 C40.375,18.6 41.5,19.716 41.5,21.08 C41.5,22.444 40.375,23.56 39,23.56 Z M54,7.44 C52.625,7.44 51.5,6.324 51.5,4.96 C51.5,3.596 52.625,2.48 54,2.48 C55.375,2.48 56.5,3.596 56.5,4.96 C56.5,6.324 55.375,7.44 54,7.44 Z" id="Shape"></path>
                </g>
            </g>
        </g>
    </g>
</svg>