<?xml version="1.0" encoding="UTF-8"?>
<svg width="120px" height="29px" viewBox="0 0 120 29" version="1.1" xmlns="http://www.w3.org/2000/svg" xmlns:xlink="http://www.w3.org/1999/xlink">
    <!-- Generator: Sketch 63.1 (92452) - https://sketch.com -->
    <title>Asset 5</title>
    <desc>Created with Sketch.</desc>
    <defs>
        <linearGradient x1="-19.220922%" y1="19.0275608%" x2="66.008753%" y2="86.9956652%" id="linearGradient-1">
            <stop stop-color="#15A0FF" offset="0%"></stop>
            <stop stop-color="#1EA6EF" offset="11%"></stop>
            <stop stop-color="#37B4C7" offset="31%"></stop>
            <stop stop-color="#5FCC85" offset="60%"></stop>
            <stop stop-color="#96ED2B" offset="94%"></stop>
            <stop stop-color="#9FF21C" offset="100%"></stop>
        </linearGradient>
        <linearGradient x1="-78.6013809%" y1="-80.5632201%" x2="94.1893726%" y2="95.5573197%" id="linearGradient-2">
            <stop stop-color="#15A0FF" offset="0%"></stop>
            <stop stop-color="#1EA6EF" offset="11%"></stop>
            <stop stop-color="#37B4C7" offset="31%"></stop>
            <stop stop-color="#5FCC85" offset="60%"></stop>
            <stop stop-color="#96ED2B" offset="94%"></stop>
            <stop stop-color="#9FF21C" offset="100%"></stop>
        </linearGradient>
        <linearGradient x1="-209.747783%" y1="-180.34188%" x2="95.8468487%" y2="90.7203907%" id="linearGradient-3">
            <stop stop-color="#15A0FF" offset="0%"></stop>
            <stop stop-color="#1EA6EF" offset="11%"></stop>
            <stop stop-color="#37B4C7" offset="31%"></stop>
            <stop stop-color="#5FCC85" offset="60%"></stop>
            <stop stop-color="#96ED2B" offset="94%"></stop>
            <stop stop-color="#9FF21C" offset="100%"></stop>
        </linearGradient>
    </defs>
    <g id="100819_Current" stroke="none" stroke-width="1" fill="none" fill-rule="evenodd">
        <g id="home-screen-v2" transform="translate(-59.000000, -26.000000)" fill-rule="nonzero">
            <g id="Group" transform="translate(59.000000, 26.000000)">
                <g id="LOGO">
                    <g id="Asset-5">
                        <path d="M8.53597734,6.39364706 L11.3609065,6.39364706 L11.3609065,16.7176471 L8.53597734,16.7176471 L8.53597734,15.2949412 C7.71660688,16.4547698 6.3722837,17.1248851 4.95637394,17.0792941 C2.06685552,17.0792941 0,14.8275294 0,11.6784706 C0,8.42364706 2.17903683,6.03541176 5.18073654,6.03541176 C6.58130312,6.03541176 7.53654391,6.52670588 8.53597734,7.71058824 L8.53597734,6.39364706 Z M3.02209632,11.6341176 C3.02209632,13.4423529 4.20169972,14.8036471 5.74164306,14.8036471 C7.2815864,14.8036471 8.58696884,13.3331765 8.58696884,11.5454118 C8.58696884,9.75764706 7.43116147,8.42364706 5.76543909,8.42364706 C4.15750708,8.42364706 3.02209632,9.74058824 3.02209632,11.6341176 Z" id="Shape" fill="#000000"></path>
                        <path d="M21.984136,15.5405882 C20.9197857,16.564973 19.4911278,17.1190963 18.0169972,17.0792941 C16.5586981,17.120474 15.1481264,16.555735 14.1184776,15.518476 C13.0888287,14.4812169 12.5314146,13.0634246 12.5779037,11.6 C12.5779037,8.34176471 14.8453258,6.02176471 18.0441926,6.02176471 C19.5807365,6.02176471 20.8453258,6.55741176 22.1575071,7.72764706 L20.2674221,9.43352941 C19.7244918,8.8424831 18.9573161,8.51019821 18.1563739,8.51917647 C16.5994334,8.51917647 15.4368272,9.79176471 15.4368272,11.4874118 C15.4368272,13.2478824 16.6164306,14.5204706 18.2617564,14.5204706 C18.996034,14.5204706 19.529745,14.2987059 20.2606232,13.6504706 L21.984136,15.5405882 Z" id="Path" fill="#000000"></path>
                        <path d="M26.603966,13.688 C26.603966,14.1792941 26.784136,14.3123529 27.4062323,14.3703529 L27.8957507,14.3703529 L27.8957507,16.7176471 L25.6487252,16.7176471 C24.2889518,16.6732941 23.7586402,16.1171765 23.7824363,14.7558824 L23.7824363,8.73411765 L22.6028329,8.73411765 L22.6028329,6.34588235 L23.796034,6.34588235 L23.796034,3.58235294 L26.6175637,3.58235294 L26.6175637,6.34929412 L27.9093484,6.34929412 L27.9093484,8.73752941 L26.6175637,8.73752941 L26.603966,13.688 Z" id="Path" fill="#000000"></path>
                        <path d="M32.0294618,3.46976471 C32.0238293,4.33841112 31.3176315,5.03800566 30.4521246,5.03235286 C29.5866178,5.02670006 28.8895518,4.31794054 28.8951841,3.44929412 C28.8988276,2.88737837 29.2008893,2.37009763 29.6875855,2.09230656 C30.1742817,1.81451549 30.7716717,1.81841717 31.2547244,2.10254186 C31.7377771,2.38667246 32.0331053,2.90784896 32.0294618,3.46976471 L32.0294618,3.46976471 Z M31.8730878,16.7176471 L29.0481586,16.7176471 L29.0481586,6.39364706 L31.8730878,6.39364706 L31.8730878,16.7176471 Z" id="Shape" fill="#000000"></path>
                        <path d="M44.321813,11.658 C44.321813,14.6910588 41.8538244,17.0792941 38.6957507,17.0792941 C35.4492918,17.0792941 33.1172805,14.7797647 33.1172805,11.5692941 C33.1172805,8.28717647 35.4050992,6.03541176 38.7399433,6.03541176 C41.9864023,6.03541176 44.321813,8.39976471 44.321813,11.658 Z M35.9626062,11.5692941 C35.9626062,13.3536471 37.074221,14.558 38.7195467,14.558 C40.3648725,14.558 41.4730878,13.3331765 41.4730878,11.6 C41.4730878,9.72694118 40.4260623,8.56352941 38.7365439,8.56352941 C37.0470255,8.56352941 35.9626062,9.76105882 35.9626062,11.5692941 L35.9626062,11.5692941 Z" id="Shape" fill="#000000"></path>
                        <path d="M48.3433428,6.39364706 L48.3433428,7.66623529 C49.098017,6.48235294 49.8526912,6.03541176 51.1444759,6.03541176 C52.0791604,6.02165947 52.9842428,6.36427791 53.6770538,6.99411765 C54.3569405,7.67647059 54.588102,8.48847059 54.588102,10.1875294 L54.588102,16.7176471 L51.7665722,16.7176471 L51.7665722,10.3205882 C51.8025465,9.90384078 51.7175383,9.48555249 51.521813,9.11623529 C51.2110814,8.67451627 50.7005766,8.41833797 50.1620397,8.43388235 C49.074221,8.43388235 48.3399433,9.25952941 48.3399433,10.4638824 L48.3399433,16.7176471 L45.5184136,16.7176471 L45.5184136,6.39364706 L48.3433428,6.39364706 Z" id="Path" fill="#000000"></path>
                        <path d="M64.3240793,6.39364706 L67.1456091,6.39364706 L67.1456091,16.7176471 L64.3240793,16.7176471 L64.3240793,15.2949412 C63.5047089,16.4547698 62.1603857,17.1248851 60.7444759,17.0792941 C57.8549575,17.0792941 55.788102,14.8275294 55.788102,11.6784706 C55.788102,8.42364706 57.9671388,6.03541176 60.9688385,6.03541176 C62.3694051,6.03541176 63.3246459,6.52670588 64.3240793,7.71058824 L64.3240793,6.39364706 Z M58.8101983,11.6341176 C58.8101983,13.4423529 59.9898017,14.8036471 61.529745,14.8036471 C63.0696884,14.8036471 64.3750708,13.3331765 64.3750708,11.5454118 C64.3750708,9.75764706 63.2294618,8.42364706 61.529745,8.42364706 C59.9456091,8.42364706 58.8101983,9.74058824 58.8101983,11.6341176 Z" id="Shape" fill="#000000"></path>
                        <path d="M71.8572238,16.7176471 L69.0356941,16.7176471 L69.0356941,1.84235294 L71.8572238,1.84235294 L71.8572238,7.64235294 C72.8362606,6.50282353 73.7915014,6.03541176 75.192068,6.03541176 C78.2141643,6.03541176 80.3728045,8.35541176 80.3728045,11.6136471 C80.3728045,14.8718824 78.3331445,17.0724706 75.3246459,17.0724706 C73.7711048,17.0724706 72.768272,16.5811765 71.8572238,15.3665882 L71.8572238,16.7176471 Z M71.8130312,11.6307059 C71.8130312,13.4832941 72.9484419,14.7763529 74.5699717,14.7763529 C76.1915014,14.7763529 77.3711048,13.4832941 77.3711048,11.6307059 C77.3711048,9.77811765 76.1915014,8.42023529 74.6515581,8.42023529 C73.1116147,8.42023529 71.8130312,9.84976471 71.8130312,11.6341176 L71.8130312,11.6307059 Z" id="Shape" fill="#000000"></path>
                        <polygon id="Path" fill="#000000" points="81.6135977 16.7176471 81.6135977 1.84235294 84.4385269 1.84235294 84.4385269 16.7176471"></polygon>
                        <path d="M88.6164306,12.238 C88.798382,13.3824684 89.6741334,14.2905114 90.8079326,14.5103093 C91.9417318,14.7301072 93.091438,14.2147187 93.6849858,13.2205882 L96.2855524,13.9336471 C95.3749882,15.8733586 93.4213222,17.1023281 91.2849858,17.0792941 C88.0147309,17.0792941 85.6827195,14.7592941 85.6827195,11.5454118 C85.6827195,8.33152941 87.9263456,6.03541176 91.1048159,6.03541176 C94.3954674,6.03541176 96.6866856,8.35541176 96.6866856,11.6784706 L96.6628895,12.238 L88.6164306,12.238 Z M93.7733711,10.6105882 C93.6013437,9.30592427 92.4584263,8.3535052 91.1490085,8.42364706 C89.7892351,8.42364706 88.8815864,9.20494118 88.6164306,10.6105882 L93.7733711,10.6105882 Z" id="Shape" fill="#000000"></path>
                        <polygon id="Path" fill="#000000" points="3.03569405 28.7168235 1.65212465 28.7168235 1.65212465 21.9581176 3.03569405 21.9581176"></polygon>
                        <polygon id="Path" fill="#000000" points="7.84589235 28.7168235 6.45892351 28.7168235 6.45892351 21.9581176 7.81869688 21.9581176 10.6368272 26.1716471 10.6368272 21.9581176 12.0203966 21.9581176 12.0203966 28.7168235 10.6606232 28.7168235 7.84589235 24.4384706"></polygon>
                        <path d="M16.4022663,26.7414118 L16.4022663,26.8301176 C16.4111526,27.064612 16.5170596,27.2847678 16.6944947,27.4375916 C16.8719297,27.5904155 17.1048213,27.6620652 17.3371105,27.6352941 C17.5501224,27.6591545 17.7637907,27.596478 17.9304703,27.4612405 C18.09715,27.3260031 18.2029803,27.1294507 18.2243626,26.9154118 C18.2211882,26.7042454 18.1207675,26.5064549 17.9524079,26.3797647 C17.7026399,26.2086977 17.4255566,26.0817694 17.1331445,26.0044706 C15.6373938,25.462 15.1206799,24.9058824 15.1206799,23.8823529 C15.1206799,22.6575294 16.0181303,21.8352941 17.3405099,21.8352941 C18.6628895,21.8352941 19.5025496,22.5961176 19.6147309,23.8823529 L18.2209632,23.8823529 C18.2312307,23.6487898 18.1394095,23.4223629 17.9695486,23.2623769 C17.7996878,23.1023908 17.5687096,23.0247838 17.3371105,23.0498824 C17.1316818,23.0238172 16.9248365,23.0860143 16.7675306,23.2211514 C16.6102247,23.3562886 16.517082,23.5518027 16.5110482,23.7595294 C16.5125123,24.0354668 16.6747298,24.2850136 16.925779,24.3975294 C17.1760537,24.5362134 17.4390164,24.650463 17.7110482,24.7387059 C18.2268245,24.8860295 18.7054276,25.1419002 19.1150142,25.4892941 C19.4691344,25.8297057 19.6640956,26.3040159 19.6521246,26.796 C19.6521246,28.0344706 18.7206799,28.8430588 17.3303116,28.8430588 C15.9399433,28.8430588 15.0458924,28.0344706 15.0560907,26.738 L16.4022663,26.7414118 Z" id="Path" fill="#000000"></path>
                        <polygon id="Path" fill="#000000" points="24.1359773 28.7168235 22.7388102 28.7168235 22.7388102 21.9581176 24.1359773 21.9581176"></polygon>
                        <path d="M34.1405099,24.9263529 L34.1405099,25.2914118 C34.1823999,26.2296773 33.8267267,27.1419172 33.1614731,27.8024706 C32.5080914,28.4737029 31.6114707,28.850394 30.6764873,28.8465009 C28.7445858,28.8465009 27.1784703,27.274674 27.1784703,25.3357647 C27.1784703,23.3968554 28.7445858,21.8250588 30.6764873,21.8250588 C31.733752,21.8129722 32.7373672,22.2914187 33.396034,23.1215294 L32.3558074,23.9437647 C31.9733259,23.4094038 31.3558272,23.0950805 30.7002833,23.1010588 C29.5206799,23.1010588 28.61983,24.0734118 28.61983,25.3494118 C28.597815,25.9291988 28.8091744,26.4934902 29.2062878,26.9151488 C29.6034013,27.3368073 30.1528635,27.5803628 30.7308782,27.5909412 C31.3077086,27.5934557 31.8572056,27.3444759 32.2368272,26.9085882 C32.43615,26.6633077 32.5726927,26.3728339 32.6345609,26.0624706 L30.768272,26.0624706 L30.768272,24.9263529 L34.1405099,24.9263529 Z" id="Path" fill="#000000"></path>
                        <polygon id="Path" fill="#000000" points="38.5767705 28.7168235 37.1932011 28.7168235 37.1932011 21.9581176 38.5767705 21.9581176 38.5767705 24.8137647 41.1331445 24.8137647 41.1331445 21.9581176 42.5167139 21.9581176 42.5167139 28.7168235 41.1331445 28.7168235 41.1331445 25.9498824 38.5767705 25.9498824"></polygon>
                        <polygon id="Path" fill="#000000" points="48.2719547 28.7168235 46.8883853 28.7168235 46.8883853 23.0908235 45.2838527 23.0908235 45.2838527 21.9581176 49.8696884 21.9581176 49.8696884 23.0908235 48.2719547 23.0908235"></polygon>
                        <path d="M119.537677,11.1974118 L98.3524079,0.0238823529 C98.2841215,-0.0125410985 98.2002916,-0.00116767139 98.1440921,0.052145122 C98.0878925,0.105457915 98.0718591,0.188818254 98.1042493,0.259294118 L103.781303,11.6955294 C103.805205,11.746289 103.805205,11.8051228 103.781303,11.8558824 L98.0668555,23.0703529 C98.0279719,23.1404257 98.0407685,23.2279658 98.0980685,23.2838762 C98.1553685,23.3397866 98.242918,23.3501592 98.3116147,23.3091765 L100.766006,21.924 C100.766006,21.924 100.766006,21.8898824 100.783003,21.8762353 L105.882153,11.9002353 L105.882153,11.9002353 L105.939943,11.7876471 L102.54051,4.96411765 C102.505532,4.89333164 102.520397,4.80794944 102.577221,4.75326305 C102.634045,4.69857665 102.719667,4.68725108 102.788669,4.72529412 L115.580737,11.1462353 L116.661756,11.7057647 L115.189802,14.5716471 L119.554674,12.1151765 C119.718793,12.0193348 119.818338,11.8418185 119.8149,11.6512828 C119.81128,11.4607471 119.705231,11.2870661 119.537677,11.1974118 Z" id="Path" fill="url(#linearGradient-1)"></path>
                        <path d="M110.141643,11.7330565 L109.291785,11.7330565 C108.772989,11.7322915 108.297587,12.0235761 108.06119,12.4870588 L104.043059,20.3341176 L106.786402,18.7851765 C106.816642,18.7672454 106.841349,18.7412677 106.85779,18.7101176 L110.301416,11.9991765 C110.331365,11.9429911 110.329638,11.8751329 110.296871,11.8205553 C110.264103,11.7659776 110.205132,11.7327377 110.141643,11.7330565 L110.141643,11.7330565 Z" id="Path" fill="url(#linearGradient-2)"></path>
                        <path d="M112.181303,12.4938824 L109.699717,17.3181176 L112.218697,15.8988235 C112.248936,15.8808925 112.273644,15.8549147 112.290085,15.8237647 L114.387535,11.7296471 L113.405099,11.7296471 C112.886726,11.7341799 112.414369,12.0291572 112.181303,12.4938824 L112.181303,12.4938824 Z" id="Path" fill="url(#linearGradient-3)"></path>
                    </g>
                </g>
            </g>
        </g>
    </g>
</svg>