<?xml version="1.0" encoding="UTF-8"?>
<svg width="16px" height="16px" viewBox="0 0 16 16" version="1.1" xmlns="http://www.w3.org/2000/svg" xmlns:xlink="http://www.w3.org/1999/xlink">
    <!-- Generator: Sketch 63.1 (92452) - https://sketch.com -->
    <title>ion-social-linkedin-outline</title>
    <desc>Created with Sketch.</desc>
    <g id="100819_Current" stroke="none" stroke-width="1" fill="none" fill-rule="evenodd" opacity="0.205845424">
        <g id="home-screen-v2" transform="translate(-962.000000, -32.000000)" fill="#000000" fill-rule="nonzero">
            <g id="Group" transform="translate(59.000000, 26.000000)">
                <g id="ion-social-linkedin-outline" transform="translate(903.000000, 6.000000)">
                    <path d="M4.95866667,13.3333333 L2.66666667,13.3333333 L2.66666667,6.208 L4.95866667,6.208 L4.95866667,13.3333333 L4.95866667,13.3333333 Z M3.87533333,5.12466667 C3.12533333,5.12533333 2.66666667,4.584 2.66666667,3.91733333 C2.66666667,3.208 3.16666667,2.66666667 3.91666667,2.66666667 C4.66666667,2.66666667 5.12533333,3.20866667 5.12533333,3.91666667 C5.12533333,4.58333333 4.62533333,5.12533333 3.87533333,5.12533333 L3.87533333,5.12466667 Z M10.7086667,6.042 C12.2086667,6.042 13.3333333,7.042 13.3333333,9.16666667 L13.3333333,13.3333333 L11.0413333,13.3333333 L11.0413333,9.41666667 C11.0413333,8.5 10.708,7.87466667 9.87466667,7.87466667 C9.25,7.87466667 8.87466667,8.292 8.708,8.708 C8.62533333,8.87466667 8.62533333,9.08333333 8.62533333,9.29133333 L8.62533333,13.3333333 L6.33333333,13.3333333 L6.33333333,6.208 L8.62533333,6.208 L8.62533333,7.208 C8.95866667,6.75 9.5,6.04133333 10.708,6.04133333 L10.7086667,6.042 Z M14.7086667,0 C15.4586667,0 16,0.542 16,1.25 L16,14.6253333 C16,15.3333333 15.458,16 14.708,16 L1.37466667,16 C0.625333333,16 0,15.3333333 0,14.6246667 L0,1.25 C0,0.541333333 0.625333333,0 1.37533333,0 L14.7086667,0 Z M14.5833333,14.6666667 C14.6280929,14.663749 14.663749,14.6280929 14.6666667,14.5833333 L14.6666667,1.41666667 C14.663749,1.3719071 14.6280929,1.33625096 14.5833333,1.33333333 L1.41666667,1.33333333 C1.41666667,1.33333333 1.33333333,1.37533333 1.33333333,1.41666667 L1.33333333,14.542 C1.33333333,14.542 1.37533333,14.6666667 1.45866667,14.6666667 L14.5833333,14.6666667 Z" id="Shape"></path>
                </g>
            </g>
        </g>
    </g>
</svg>