<?xml version="1.0" encoding="UTF-8"?>
<svg width="64px" height="51px" viewBox="0 0 64 51" version="1.1" xmlns="http://www.w3.org/2000/svg" xmlns:xlink="http://www.w3.org/1999/xlink">
    <!-- Generator: Sketch 63.1 (92452) - https://sketch.com -->
    <title>Group 5</title>
    <desc>Created with Sketch.</desc>
    <g id="100819_Current" stroke="none" stroke-width="1" fill="none" fill-rule="evenodd">
        <g id="home-screen-v2" transform="translate(-162.000000, -1174.000000)" fill="#1577D9" fill-rule="nonzero">
            <g id="Group-16" transform="translate(69.000000, 1169.000000)">
                <g id="Group-5" transform="translate(93.000000, 5.000000)">
                    <path d="M60.7790984,34.0969511 C66.6387873,24.3558546 64.311798,11.7741483 55.3556717,4.77324002 C46.3995454,-2.22766826 33.6282275,-1.4481474 25.5900401,6.59004007 C17.5518526,14.6282275 16.7723317,27.3995454 23.77324,36.3556717 C30.7741483,45.311798 43.3558546,47.6387873 53.0969511,41.7790984 L62.5890564,44.9427765 C62.6980825,44.97964 62.8123969,44.9984513 62.9274864,44.9984675 C63.2715575,44.9982063 63.5945516,44.8326521 63.7956611,44.5534748 C63.9967706,44.2742975 64.0515031,43.9154971 63.9427765,43.5890564 L60.7790984,34.0969511 Z M53.2993665,39.5889421 C52.994681,39.4846427 52.6591449,39.5240248 52.3868907,39.6960402 C43.6213874,45.2442722 32.0857671,43.3137053 25.6043755,35.2137985 C19.1229839,27.1138918 19.7691356,15.4357022 27.1045609,8.10027696 C34.4399861,0.764851714 46.1181757,0.118699966 54.2180825,6.60009157 C62.3179892,13.0814832 64.2485562,24.6171034 58.7003241,33.3826067 C58.5293514,33.655229 58.4900261,33.9902805 58.593226,34.2950826 L61.2385493,42.2299814 L53.2993665,39.5889421 Z" id="Shape"></path>
                    <path d="M30.2941084,45.8075432 C24.3466323,49.8034786 16.5918108,49.9136765 10.53254,46.0883597 C10.2629077,45.9177445 9.9300582,45.8787461 9.62810335,45.9823912 L2.7422691,48.2649528 L5.03683866,41.3992533 C5.13891119,41.0979826 5.09989578,40.7669323 4.93055938,40.4974613 C1.69869596,35.4060517 1.23377536,29.0406984 3.69171701,23.5361365 C6.14965866,18.0315747 11.2049622,14.1167625 17.1622412,13.1046022 C17.5366247,13.0413779 17.8487406,12.783809 17.9810179,12.4289192 C18.1132951,12.0740295 18.0456377,11.6757351 17.8035315,11.3840697 C17.5614252,11.0924044 17.1816519,10.9516789 16.8072684,11.0149033 C10.2375339,12.1306604 4.64299593,16.4065818 1.85575641,22.4423868 C-0.931483099,28.4781919 -0.552445636,35.4965076 2.86874144,41.1989728 L0.0544662302,49.6054544 C-0.0534290873,49.9284521 0.000884992706,50.283468 0.200456874,50.5597008 C0.400028754,50.8359335 0.720553292,51 1.06199376,51 C1.17620336,51 1.2896438,50.9813711 1.39783627,50.9448964 L9.82897118,48.1441487 C16.5499208,52.1529649 24.9895444,51.9254 31.4833735,47.5602623 C31.8210885,47.3585424 32.0193063,46.987213 31.9985104,46.5952355 C31.9777146,46.2032581 31.7413122,45.8548522 31.3841378,45.6897834 C31.0269634,45.5247146 30.6075347,45.570027 30.2941084,45.8075432 Z" id="Path"></path>
                    <path d="M30.5,18 C28.0147186,18 26,19.790861 26,22 C26,24.209139 28.0147186,26 30.5,26 C32.9852814,26 35,24.209139 35,22 C35,19.790861 32.9852814,18 30.5,18 Z M30.5,24 C29.2573593,24 28.25,23.1045695 28.25,22 C28.25,20.8954305 29.2573593,20 30.5,20 C31.7426407,20 32.75,20.8954305 32.75,22 C32.75,23.1045695 31.7426407,24 30.5,24 Z" id="Shape"></path>
                    <path d="M51.5,18 C49.0147186,18 47,19.790861 47,22 C47,24.209139 49.0147186,26 51.5,26 C53.9852814,26 56,24.209139 56,22 C56,19.790861 53.9852814,18 51.5,18 Z M51.5,24 C50.2573593,24 49.25,23.1045695 49.25,22 C49.25,20.8954305 50.2573593,20 51.5,20 C52.7426407,20 53.75,20.8954305 53.75,22 C53.75,23.1045695 52.7426407,24 51.5,24 Z" id="Shape"></path>
                    <path d="M41.5,18 C39.0147186,18 37,19.790861 37,22 C37,24.209139 39.0147186,26 41.5,26 C43.9852814,26 46,24.209139 46,22 C46,19.790861 43.9852814,18 41.5,18 Z M41.5,24 C40.2573593,24 39.25,23.1045695 39.25,22 C39.25,20.8954305 40.2573593,20 41.5,20 C42.7426407,20 43.75,20.8954305 43.75,22 C43.75,23.1045695 42.7426407,24 41.5,24 Z" id="Shape"></path>
                </g>
            </g>
        </g>
    </g>
</svg>