<?xml version="1.0" encoding="UTF-8"?>
<svg width="57px" height="57px" viewBox="0 0 57 57" version="1.1" xmlns="http://www.w3.org/2000/svg" xmlns:xlink="http://www.w3.org/1999/xlink">
    <!-- Generator: Sketch 63.1 (92452) - https://sketch.com -->
    <title>Group 8</title>
    <desc>Created with Sketch.</desc>
    <g id="100819_Current" stroke="none" stroke-width="1" fill="none" fill-rule="evenodd">
        <g id="home-screen-v2" transform="translate(-778.000000, -1169.000000)" fill="#1577D9" fill-rule="nonzero">
            <g id="Group-16" transform="translate(69.000000, 1169.000000)">
                <g id="Group-8" transform="translate(709.000000, 0.000000)">
                    <path d="M31,29.8076923 C31,22.9662308 26.5383846,17.1549231 20.3753462,15.1053462 C22.4738077,13.5875385 23.8461538,11.1266154 23.8461538,8.34615385 C23.8461538,3.74503846 20.1011154,0 15.5,0 C10.8988846,0 7.15384615,3.74503846 7.15384615,8.34615385 C7.15384615,11.1266154 8.52619231,13.5875385 10.6246538,15.1053462 C4.46161538,17.1549231 0,22.9662308 0,29.8076923 L0,31 L31,31 L31,29.8076923 Z M9.53846154,8.34615385 C9.53846154,5.05896154 12.2128077,2.38461538 15.5,2.38461538 C18.7871923,2.38461538 21.4615385,5.05896154 21.4615385,8.34615385 C21.4615385,11.6333462 18.7871923,14.3076923 15.5,14.3076923 C12.2128077,14.3076923 9.53846154,11.6333462 9.53846154,8.34615385 Z M2.43826923,28.6153846 C3.04276923,21.9396538 8.66926923,16.6923077 15.5,16.6923077 C22.3307308,16.6923077 27.9572308,21.9396538 28.5617308,28.6153846 L2.43826923,28.6153846 Z" id="Shape"></path>
                    <path d="M46.3753462,41.1053462 C48.4738077,39.5875385 49.8461538,37.1266154 49.8461538,34.3461538 C49.8461538,29.7450385 46.1011154,26 41.5,26 C36.8988846,26 33.1538462,29.7450385 33.1538462,34.3461538 C33.1538462,37.1266154 34.5261923,39.5875385 36.6246538,41.1053462 C30.4616154,43.1549231 26,48.9662308 26,55.8076923 L26,57 L57,57 L57,55.8076923 C57,48.9662308 52.5383846,43.1549231 46.3753462,41.1053462 Z M35.5384615,34.3461538 C35.5384615,31.0589615 38.2128077,28.3846154 41.5,28.3846154 C44.7871923,28.3846154 47.4615385,31.0589615 47.4615385,34.3461538 C47.4615385,37.6333462 44.7871923,40.3076923 41.5,40.3076923 C38.2128077,40.3076923 35.5384615,37.6333462 35.5384615,34.3461538 Z M28.4382692,54.6153846 C29.0427692,47.9396538 34.6692692,42.6923077 41.5,42.6923077 C48.3307308,42.6923077 53.9572308,47.9396538 54.5617308,54.6153846 L28.4382692,54.6153846 Z" id="Shape"></path>
                    <polygon id="Path" points="42 22 42 7.63476387 32.3170614 7.63476387 36.0307717 3.69270366 34.4361205 2 28 8.83186688 34.4361205 15.6637338 36.0307717 13.9710301 32.3170614 10.0289699 39.744482 10.0289699 39.744482 22"></polygon>
                    <polygon id="Path" points="12.9692283 43.0289699 16.6829386 46.9710301 9.25551796 46.9710301 9.25551796 35 7 35 7 49.3652361 16.6829386 49.3652361 12.9692283 53.3072963 14.5638795 55 21 48.1681331 14.5638795 41.3362662"></polygon>
                </g>
            </g>
        </g>
    </g>
</svg>