<?xml version="1.0" encoding="UTF-8"?>
<svg width="54px" height="53px" viewBox="0 0 54 53" version="1.1" xmlns="http://www.w3.org/2000/svg" xmlns:xlink="http://www.w3.org/1999/xlink">
    <!-- Generator: Sketch 63.1 (92452) - https://sketch.com -->
    <title>Group 7</title>
    <desc>Created with Sketch.</desc>
    <g id="100819_Current" stroke="none" stroke-width="1" fill="none" fill-rule="evenodd">
        <g id="prysm-screen-v2" transform="translate(-602.000000, -1323.000000)" fill="#7E7670" fill-rule="nonzero">
            <g id="Group-7" transform="translate(602.000000, 1323.000000)">
                <path d="M52.9090909,50.8507463 L50.9454545,50.8507463 L50.9454545,18.0746269 C50.9454545,17.4835821 50.4545455,17 49.8545455,17 L43.4181818,17 C42.8181818,17 42.3272727,17.4835821 42.3272727,18.0746269 L42.3272727,50.8507463 L37.8545455,50.8507463 L37.8545455,32.0447761 C37.8545455,31.4537313 37.3636364,30.9701493 36.7636364,30.9701493 L30.3272727,30.9701493 C29.7272727,30.9701493 29.2363636,31.4537313 29.2363636,32.0447761 L29.2363636,50.8507463 L24.7636364,50.8507463 L24.7636364,24.5223881 C24.7636364,23.9313433 24.2727273,23.4477612 23.6727273,23.4477612 L17.2363636,23.4477612 C16.6363636,23.4477612 16.1454545,23.9313433 16.1454545,24.5223881 L16.1454545,50.8507463 L11.6727273,50.8507463 L11.6727273,36.3432836 C11.6727273,35.7522388 11.1818182,35.2686567 10.5818182,35.2686567 L4.14545455,35.2686567 C3.54545455,35.2686567 3.05454545,35.7522388 3.05454545,36.3432836 L3.05454545,50.8507463 L1.09090909,50.8507463 C0.490909091,50.8507463 0,51.3343284 0,51.9253731 C0,52.5164179 0.490909091,53 1.09090909,53 L52.9090909,53 C53.5090909,53 54,52.5164179 54,51.9253731 C54,51.3343284 53.5090909,50.8507463 52.9090909,50.8507463 Z M44.5090909,19.1492537 L48.7636364,19.1492537 L48.7636364,50.8507463 L44.5090909,50.8507463 L44.5090909,19.1492537 Z M31.4181818,33.119403 L35.6727273,33.119403 L35.6727273,50.8507463 L31.4181818,50.8507463 L31.4181818,33.119403 L31.4181818,33.119403 Z M18.3272727,25.5970149 L22.5818182,25.5970149 L22.5818182,50.8507463 L18.3272727,50.8507463 L18.3272727,25.5970149 Z M5.23636364,37.4179104 L9.49090909,37.4179104 L9.49090909,50.8507463 L5.23636364,50.8507463 L5.23636364,37.4179104 L5.23636364,37.4179104 Z" id="Shape"></path>
                <path d="M46.6363636,0 C44.2363636,0 42.2727273,1.944 42.2727273,4.32 C42.2727273,5.184 42.5454545,6.048 43.0363636,6.696 L35.2363636,14.364 C34.6909091,14.148 34.1454545,14.04 33.5454545,14.04 C32.5090909,14.04 31.5272727,14.418 30.8181818,15.012 L24.8181818,11.286 C24.8181818,11.124 24.8727273,10.962 24.8727273,10.8 C24.8727273,8.424 22.9090909,6.48 20.5090909,6.48 C18.1090909,6.48 16.1454545,8.424 16.1454545,10.8 C16.1454545,11.394 16.2545455,11.988 16.5272727,12.528 L9.05454545,18.684 C8.56363636,18.468 7.96363636,18.36 7.36363636,18.36 C4.96363636,18.36 3,20.304 3,22.68 C3,25.056 4.96363636,27 7.36363636,27 C9.76363636,27 11.7272727,25.056 11.7272727,22.68 C11.7272727,21.708 11.4,20.79 10.8,20.034 L17.7818182,14.202 C18.4909091,14.742 19.4181818,15.12 20.4545455,15.12 C21.9272727,15.12 23.1818182,14.418 24,13.338 L29.5090909,16.74 C29.2909091,17.226 29.1818182,17.766 29.1818182,18.36 C29.1818182,20.736 31.1454545,22.68 33.5454545,22.68 C35.9454545,22.68 37.9090909,20.736 37.9090909,18.36 C37.9090909,17.388 37.5818182,16.47 36.9818182,15.714 L44.6181818,8.154 C45.2181818,8.478 45.8727273,8.64 46.6363636,8.64 C49.0363636,8.64 51,6.696 51,4.32 C51,1.944 49.0363636,0 46.6363636,0 Z M7.36363636,24.84 C6.16363636,24.84 5.18181818,23.868 5.18181818,22.68 C5.18181818,21.492 6.16363636,20.52 7.36363636,20.52 C8.56363636,20.52 9.54545455,21.492 9.54545455,22.68 C9.54545455,23.868 8.56363636,24.84 7.36363636,24.84 Z M20.4545455,12.96 C19.2545455,12.96 18.2727273,11.988 18.2727273,10.8 C18.2727273,9.612 19.2545455,8.64 20.4545455,8.64 C21.6545455,8.64 22.6363636,9.612 22.6363636,10.8 C22.6363636,11.988 21.6545455,12.96 20.4545455,12.96 Z M33.5454545,20.52 C32.3454545,20.52 31.3636364,19.548 31.3636364,18.36 C31.3636364,17.172 32.3454545,16.2 33.5454545,16.2 C34.7454545,16.2 35.7272727,17.172 35.7272727,18.36 C35.7272727,19.548 34.7454545,20.52 33.5454545,20.52 Z M46.6363636,6.48 C45.4363636,6.48 44.4545455,5.508 44.4545455,4.32 C44.4545455,3.132 45.4363636,2.16 46.6363636,2.16 C47.8363636,2.16 48.8181818,3.132 48.8181818,4.32 C48.8181818,5.508 47.8363636,6.48 46.6363636,6.48 Z" id="Shape"></path>
            </g>
        </g>
    </g>
</svg>