<?xml version="1.0" encoding="UTF-8"?>
<svg width="60px" height="48px" viewBox="0 0 60 48" version="1.1" xmlns="http://www.w3.org/2000/svg" xmlns:xlink="http://www.w3.org/1999/xlink">
    <!-- Generator: Sketch 63.1 (92452) - https://sketch.com -->
    <title>Group 4</title>
    <desc>Created with Sketch.</desc>
    <g id="100819_Current" stroke="none" stroke-width="1" fill="none" fill-rule="evenodd">
        <g id="prysm-screen-v2" transform="translate(-360.000000, -1324.000000)" fill="#7E7670" fill-rule="nonzero">
            <g id="Group-4" transform="translate(360.000000, 1324.000000)">
                <path d="M56.9932482,31.8371181 C62.4645764,22.7416292 60.2918122,10.9937968 51.9292683,4.45688549 C43.5667244,-2.08002579 31.6418471,-1.35216899 24.1364041,6.15327404 C16.6309611,13.6587171 15.9031043,25.5835943 22.4400156,33.9461382 C28.9769268,42.3086821 40.7247593,44.4814463 49.8202482,39.0101181 L58.6832482,41.9641181 C58.7850484,41.9985385 58.8917864,42.016103 58.9992482,42.0161181 C59.3205154,42.0158743 59.6221025,41.8612924 59.8098831,41.600618 C59.9976637,41.3399437 60.0487688,41.0049234 59.9472482,40.7001181 L56.9932482,31.8371181 Z M50.0092482,36.9651181 C49.7247562,36.8677313 49.4114583,36.9045034 49.1572482,37.0651181 C40.9726934,42.2456317 30.2016159,40.4430164 24.1497894,32.8799446 C18.097963,25.3168728 18.70129,14.412675 25.5505475,7.56341743 C32.3998051,0.714159875 43.3040029,0.110832926 50.8670747,6.16265936 C58.4301465,12.2144858 60.2327618,22.9855634 55.0522482,31.1701181 C54.892607,31.4246719 54.855888,31.7375173 54.9522482,32.0221181 L57.4222482,39.4311181 L50.0092482,36.9651181 Z" id="Shape"></path>
                <path d="M28.5042482,43.1161181 C22.9081655,46.8869889 15.6115205,46.99098 9.91024821,43.3811181 C9.65654651,43.2201126 9.34336273,43.1833107 9.05924821,43.2811181 L2.58024821,45.4351181 L4.73924821,38.9561181 C4.83529002,38.671816 4.79857974,38.3594116 4.63924821,38.1051181 C1.59833228,33.300474 1.16088048,27.2936391 3.47360009,22.0991129 C5.78631971,16.9045867 10.5429419,13.2102701 16.1482482,12.2551181 C16.5005121,12.1954548 16.7941873,11.952393 16.9186493,11.6174919 C17.0431112,11.2825907 16.9794512,10.9067297 16.7516493,10.6314919 C16.5238474,10.3562541 16.1665121,10.2234548 15.8142482,10.2831181 C9.63267189,11.336032 4.36867481,15.371119 1.74611316,21.0669669 C-0.876448485,26.7628149 -0.51980561,33.3858352 2.69924821,38.7671181 L0.0512482138,46.7001181 C-0.0502723482,47.0049234 0.000832704874,47.3399437 0.188613324,47.600618 C0.376393942,47.8612924 0.677980998,48.0161181 0.999248214,48.0161181 C1.10670999,48.0161181 1.21344805,47.9985385 1.31524821,47.9641181 L9.24824821,45.3211181 C15.5721054,49.1041441 23.5130926,48.8893965 29.6232482,44.7701181 C29.94101,44.5797598 30.1275165,44.2293449 30.1079494,43.859445 C30.0883822,43.489545 29.8659472,43.1607625 29.5298756,43.004991 C29.1938041,42.8492195 28.7991564,42.8919797 28.5042482,43.1161181 Z" id="Path"></path>
                <path d="M28.9992482,17.0161181 C26.7901092,17.0161181 24.9992482,18.8069791 24.9992482,21.0161181 C24.9992482,23.2252571 26.7901092,25.0161181 28.9992482,25.0161181 C31.2083872,25.0161181 32.9992482,23.2252571 32.9992482,21.0161181 C32.9992482,18.8069791 31.2083872,17.0161181 28.9992482,17.0161181 Z M28.9992482,23.0161181 C27.8946787,23.0161181 26.9992482,22.1206876 26.9992482,21.0161181 C26.9992482,19.9115486 27.8946787,19.0161181 28.9992482,19.0161181 C30.1038177,19.0161181 30.9992482,19.9115486 30.9992482,21.0161181 C30.9992482,22.1206876 30.1038177,23.0161181 28.9992482,23.0161181 Z" id="Shape"></path>
                <path d="M48.9992482,17.0161181 C46.7901092,17.0161181 44.9992482,18.8069791 44.9992482,21.0161181 C44.9992482,23.2252571 46.7901092,25.0161181 48.9992482,25.0161181 C51.2083872,25.0161181 52.9992482,23.2252571 52.9992482,21.0161181 C52.9992482,18.8069791 51.2083872,17.0161181 48.9992482,17.0161181 Z M48.9992482,23.0161181 C47.8946787,23.0161181 46.9992482,22.1206876 46.9992482,21.0161181 C46.9992482,19.9115486 47.8946787,19.0161181 48.9992482,19.0161181 C50.1038177,19.0161181 50.9992482,19.9115486 50.9992482,21.0161181 C50.9992482,22.1206876 50.1038177,23.0161181 48.9992482,23.0161181 Z" id="Shape"></path>
                <path d="M38.9992482,17.0161181 C36.7901092,17.0161181 34.9992482,18.8069791 34.9992482,21.0161181 C34.9992482,23.2252571 36.7901092,25.0161181 38.9992482,25.0161181 C41.2083872,25.0161181 42.9992482,23.2252571 42.9992482,21.0161181 C42.9992482,18.8069791 41.2083872,17.0161181 38.9992482,17.0161181 Z M38.9992482,23.0161181 C37.8946787,23.0161181 36.9992482,22.1206876 36.9992482,21.0161181 C36.9992482,19.9115486 37.8946787,19.0161181 38.9992482,19.0161181 C40.1038177,19.0161181 40.9992482,19.9115486 40.9992482,21.0161181 C40.9992482,22.1206876 40.1038177,23.0161181 38.9992482,23.0161181 Z" id="Shape"></path>
            </g>
        </g>
    </g>
</svg>