<?xml version="1.0" encoding="UTF-8"?>
<svg width="50px" height="55px" viewBox="0 0 50 55" version="1.1" xmlns="http://www.w3.org/2000/svg" xmlns:xlink="http://www.w3.org/1999/xlink">
    <!-- Generator: Sketch 63.1 (92452) - https://sketch.com -->
    <title>Shape</title>
    <desc>Created with Sketch.</desc>
    <g id="100819_Current" stroke="none" stroke-width="1" fill="none" fill-rule="evenodd">
        <g id="prysm-screen-v2" transform="translate(-847.000000, -1326.000000)" fill="#7E7670" fill-rule="nonzero" stroke="#FFFFFF">
            <path d="M856.887781,1362.61899 L859.301746,1360.15865 L861.167082,1362.05982 L866.872818,1362.05982 L866.872818,1336.44993 C868.683292,1335.77893 870,1333.9896 870,1331.86476 C870,1329.18075 867.860349,1327 865.226933,1327 C862.593516,1327 860.453865,1329.18075 860.453865,1331.86476 C860.453865,1333.93368 861.770574,1335.72302 863.581047,1336.44993 L863.581047,1358.76073 L862.538653,1358.76073 L854.473815,1350.48505 L854.473815,1346.57087 C856.284289,1345.89987 857.600998,1344.11053 857.600998,1341.9857 C857.600998,1339.30169 855.461347,1337.12094 852.82793,1337.12094 C850.194514,1337.12094 848.054863,1339.30169 848.054863,1341.9857 C848.054863,1344.05462 849.371571,1345.84395 851.182045,1346.57087 L851.182045,1351.88296 L856.997506,1357.81014 L854.309227,1360.55007 C853.815461,1360.38231 853.321696,1360.27048 852.773067,1360.27048 C850.139651,1360.27048 848,1362.45124 848,1365.13524 C848,1367.81925 850.139651,1370 852.773067,1370 C855.406484,1370 857.546135,1367.81925 857.546135,1365.13524 C857.600998,1364.24057 857.326683,1363.3459 856.887781,1362.61899 Z M865.5,1330 C866.333333,1330 867,1330.66667 867,1331.5 C867,1332.33333 866.333333,1333 865.5,1333 C864.666667,1333 864,1332.33333 864,1331.5 C864,1330.66667 864.666667,1330 865.5,1330 Z M852.5,1340 C853.333333,1340 854,1340.66667 854,1341.5 C854,1342.33333 853.333333,1343 852.5,1343 C851.666667,1343 851,1342.33333 851,1341.5 C851,1340.66667 851.666667,1340 852.5,1340 Z M852.5,1367 C851.666667,1367 851,1366.33333 851,1365.5 C851,1364.66667 851.666667,1364 852.5,1364 C853.333333,1364 854,1364.66667 854,1365.5 C854,1366.33333 853.333333,1367 852.5,1367 Z M877.697248,1334.52902 C878.357798,1336.37054 880.119266,1337.70982 882.211009,1337.70982 C884.853211,1337.70982 887,1335.53348 887,1332.85491 C887,1330.17634 884.853211,1328 882.211009,1328 C880.174312,1328 878.412844,1329.33929 877.697248,1331.1808 L874.834862,1331.1808 L870.321101,1335.70089 L870.321101,1368.90402 L867.788991,1371.47098 L866.302752,1371.47098 C865.642202,1369.62946 863.880734,1368.29018 861.788991,1368.29018 C859.146789,1368.29018 857,1370.46652 857,1373.14509 C857,1375.82366 859.146789,1378 861.788991,1378 C863.825688,1378 865.587156,1376.66071 866.302752,1374.8192 L869.165138,1374.8192 L873.623853,1370.29911 L873.623853,1337.09598 L876.155963,1334.52902 L877.697248,1334.52902 Z M882.5,1332 C883.333333,1332 884,1332.66667 884,1333.5 C884,1334.33333 883.333333,1335 882.5,1335 C881.666667,1335 881,1334.33333 881,1333.5 C881,1332.66667 881.666667,1332 882.5,1332 Z M861.5,1375 C860.666667,1375 860,1374.33333 860,1373.5 C860,1372.66667 860.666667,1372 861.5,1372 C862.333333,1372 863,1372.66667 863,1373.5 C863,1374.33333 862.333333,1375 861.5,1375 Z M892.825871,1360.3987 L892.825871,1355.09351 L886.696517,1348.83896 L889.21393,1346.27013 C889.81592,1346.54935 890.472637,1346.71688 891.238806,1346.71688 C893.865672,1346.71688 896,1344.53896 896,1341.85844 C896,1339.17792 893.865672,1337 891.238806,1337 C888.61194,1337 886.477612,1339.17792 886.477612,1341.85844 C886.477612,1342.58442 886.641791,1343.25455 886.915423,1343.92468 L884.39801,1346.49351 L882.865672,1344.92987 L877.119403,1344.92987 L877.119403,1370.56234 C875.313433,1371.23247 874,1373.01948 874,1375.14156 C874,1377.82208 876.134328,1380 878.761194,1380 C881.38806,1380 883.522388,1377.82208 883.522388,1375.14156 C883.522388,1373.07532 882.208955,1371.28831 880.402985,1370.56234 L880.402985,1348.22468 L881.442786,1348.22468 L889.542289,1356.48961 L889.542289,1360.3987 C887.736318,1361.06883 886.422886,1362.85584 886.422886,1364.97792 C886.422886,1367.65844 888.557214,1369.83636 891.18408,1369.83636 C893.810945,1369.83636 895.945274,1367.65844 895.945274,1364.97792 C895.945274,1362.91169 894.631841,1361.12468 892.825871,1360.3987 Z M891.5,1340 C892.333333,1340 893,1340.66667 893,1341.5 C893,1342.33333 892.333333,1343 891.5,1343 C890.666667,1343 890,1342.33333 890,1341.5 C890,1340.66667 890.666667,1340 891.5,1340 Z M878.5,1377 C877.666667,1377 877,1376.33333 877,1375.5 C877,1374.66667 877.666667,1374 878.5,1374 C879.333333,1374 880,1374.66667 880,1375.5 C880,1376.33333 879.333333,1377 878.5,1377 Z M891.5,1367 C890.666667,1367 890,1366.33333 890,1365.5 C890,1364.66667 890.666667,1364 891.5,1364 C892.333333,1364 893,1364.66667 893,1365.5 C893,1366.33333 892.333333,1367 891.5,1367 Z" id="Shape"></path>
        </g>
    </g>
</svg>